<?xml version="1.0" encoding="utf-8"?>
<svg version="1.2" baseProfile="tiny" xmlns="http://www.w3.org/2000/svg" xmlns:xlink="http://www.w3.org/1999/xlink"
	 x="0px" y="0px" width="32px" height="32px" viewBox="0 0 32 32" xml:space="preserve">
<path d="M26.746,26.335L22.1,18.521c-0.052-0.086-0.121-0.322,0.147-0.367l1.157-0.117c0.173-0.002,0.302-0.184,0.302-0.363
	c0-0.064-0.019-0.127-0.049-0.18l-3.736-6.411c-0.075-0.114-0.041-0.287,0.118-0.313l0.677-0.113
	c0.171-0.028,0.271-0.231,0.239-0.409c-0.008-0.04-0.021-0.08-0.04-0.114l-2.694-4.67c-0.054-0.102,0.01-0.218,0.1-0.244
	l0.353-0.105c0.166-0.051,0.24-0.264,0.188-0.438c-0.008-0.026-0.021-0.054-0.033-0.077L16.26,0.151
	c-0.055-0.09-0.148-0.15-0.262-0.15c-0.114,0-0.207,0.061-0.262,0.15l-2.568,4.447c-0.014,0.021-0.023,0.049-0.033,0.075
	c-0.052,0.175,0.022,0.388,0.188,0.438l0.354,0.105c0.091,0.026,0.152,0.145,0.101,0.244l-2.696,4.672
	c-0.019,0.032-0.032,0.073-0.04,0.112c-0.029,0.178,0.07,0.381,0.24,0.409l0.676,0.113c0.159,0.024,0.193,0.196,0.119,0.313
	l-3.737,6.41c-0.03,0.054-0.049,0.116-0.049,0.181c0,0.18,0.13,0.361,0.302,0.362l1.157,0.118c0.269,0.045,0.198,0.281,0.147,0.367
	L5.25,26.335c-0.031,0.055-0.049,0.116-0.049,0.182c0,0.18,0.133,0.36,0.304,0.362h9.216v5.12h2.561v-5.12h9.215
	c0.172-0.002,0.304-0.185,0.304-0.362C26.795,26.451,26.777,26.39,26.746,26.335z"/>
</svg>
