<?xml version="1.0" encoding="utf-8"?>
<svg version="1.2" baseProfile="tiny"
	 xmlns="http://www.w3.org/2000/svg" xmlns:xlink="http://www.w3.org/1999/xlink" x="0px" y="0px" width="32px" height="32px"
	 viewBox="0 0 32 32" xml:space="preserve">
<g>
	<polygon points="16.481,6.677 16.151,7.787 17.978,8.327 19.606,10.062 20.45,9.271 18.606,7.307 	"/>
	<polygon points="16.069,18.114 16.575,20.081 14.437,19.219 14.292,21.604 11.991,20.081 11.479,20.854 15.119,23.264
		15.283,20.559 17.927,21.624 16.966,17.884 	"/>
	<path d="M31.319,19.127l0.328-0.328l-0.568-0.568l0.051-0.068l-0.582-1.752L28.2,13.666l-1.799-2.448L22.22,5.85l-0.695-0.404
		l0.365-0.213l-0.232-0.399l-0.594,0.344l-0.191-0.11l0.236-0.135l-0.232-0.4L20.413,4.8l-0.586-0.341l-3.805-0.08l-2.168-0.284
		L8.901,1.057L8.688,0.835L6.886,0L5.497,1.042L5.153,1.729L4.843,1.802L3.595,3.85l0.418,2.611l0.418,0.125
		c0.176,0.053,0.334,0.1,0.473,0.141L4.879,7.77l0.892-0.793c0.26,0.328,0.877,1.168,1.429,1.933l1.666,3.188l-0.163,0.618
		l-0.461-0.057L5.476,10.73l-0.543-0.455l0.015-0.584L4.604,9.998L3.41,8.995L1.204,8.762l-0.852,2.217l0.352,1.254l-0.087,0.059
		l0.256,0.385L0.987,12.6l3.709,3.924l0.271,2.672L1.065,32l5.127-4.168l1.209,3.441l3.621-3.471l1.854,3.442l2.961-3.456l2.5,3.449
		l2.311-3.446l3.152,3.459l1.664-3.442l4.465,4.065L28.958,25.8l-1.236-6.627h2.541l0.285,0.312l0.328-0.312l-0.301-0.294
		l0.219-0.28L31.319,19.127z M26.892,17.805l-5.322-1.761l-0.438,1.325l5.154,1.727l1.305,6.959l0.341,2.121l-2.904-2.645
		l-1.58,3.269l-2.965-3.251l-2.188,3.264l-2.364-3.261l-2.789,3.255l-1.76-3.269L7.998,28.78l-1.149-3.271l-3.127,2.543l2.655-8.718
		l-0.346-3.421l-4.056-4.291l-0.162-0.578l0.306-0.792l0.726,0.076l1.766,1.482l3.121,2.181l2.006,0.251l0.609-2.312L8.388,8.176
		l-0.029-0.04C8.354,8.13,7.956,7.576,7.554,7.03c-0.857-1.163-1-1.357-1.338-1.38C6.077,5.616,5.673,5.501,5.248,5.377L5.049,4.133
		l0.681-1.115l1.485-0.35l1.062,0.455l0.552-0.484l4.553,2.793l2.537,0.332l3.522,0.074l1.85,1.077l4,5.132l1.807,2.46l2.221,2.581
		l0.244,0.715h-2.67V17.805z"/>
	<circle cx="9.306" cy="6.312" r="0.347"/>
	<circle cx="10.463" cy="7.546" r="0.347"/>
	<circle cx="9.884" cy="9.012" r="0.347"/>
</g>
</svg>
